<?xml version="1.0" encoding="UTF-8"?>
<svg width="55px" height="55px" viewBox="0 0 55 55" version="1.1" xmlns="http://www.w3.org/2000/svg" xmlns:xlink="http://www.w3.org/1999/xlink">
    <title>Logo</title>
    <defs>
        <linearGradient x1="50%" y1="0%" x2="50%" y2="100%" id="linearGradient-1">
            <stop stop-color="#FFFFFF" stop-opacity="0.206980032" offset="0%"></stop>
            <stop stop-color="#FFFFFF" stop-opacity="0" offset="100%"></stop>
        </linearGradient>
        <rect id="path-2" x="1.23428351e-12" y="1.31841382e-13" width="42.2979617" height="39.5341374" rx="9.24635469"></rect>
        <filter x="-21.3%" y="-22.8%" width="142.6%" height="145.5%" filterUnits="objectBoundingBox" id="filter-3">
            <feOffset dx="0" dy="0" in="SourceAlpha" result="shadowOffsetOuter1"></feOffset>
            <feGaussianBlur stdDeviation="3" in="shadowOffsetOuter1" result="shadowBlurOuter1"></feGaussianBlur>
            <feComposite in="shadowBlurOuter1" in2="SourceAlpha" operator="out" result="shadowBlurOuter1"></feComposite>
            <feColorMatrix values="0 0 0 0 0   0 0 0 0 0   0 0 0 0 0  0 0 0 0.25 0" type="matrix" in="shadowBlurOuter1"></feColorMatrix>
        </filter>
        <filter x="-29.6%" y="-31.6%" width="159.1%" height="163.2%" filterUnits="objectBoundingBox" id="filter-4">
            <feOffset dx="0" dy="0" in="SourceAlpha" result="shadowOffsetOuter1"></feOffset>
            <feGaussianBlur stdDeviation="1.5" in="shadowOffsetOuter1" result="shadowBlurOuter1"></feGaussianBlur>
            <feColorMatrix values="0 0 0 0 0   0 0 0 0 0   0 0 0 0 0  0 0 0 0.25 0" type="matrix" in="shadowBlurOuter1" result="shadowMatrixOuter1"></feColorMatrix>
            <feMerge>
                <feMergeNode in="shadowMatrixOuter1"></feMergeNode>
                <feMergeNode in="SourceGraphic"></feMergeNode>
            </feMerge>
        </filter>
        <linearGradient x1="50%" y1="0%" x2="50%" y2="100%" id="linearGradient-5">
            <stop stop-color="#FFFFFF" stop-opacity="0.502917737" offset="0%"></stop>
            <stop stop-color="#FFFFFF" stop-opacity="0" offset="100%"></stop>
        </linearGradient>
        <rect id="path-6" x="0" y="0" width="42.2979617" height="39.5341374" rx="9.24635469"></rect>
        <filter x="-21.3%" y="-22.8%" width="142.6%" height="145.5%" filterUnits="objectBoundingBox" id="filter-7">
            <feOffset dx="0" dy="0" in="SourceAlpha" result="shadowOffsetOuter1"></feOffset>
            <feGaussianBlur stdDeviation="3" in="shadowOffsetOuter1" result="shadowBlurOuter1"></feGaussianBlur>
            <feComposite in="shadowBlurOuter1" in2="SourceAlpha" operator="out" result="shadowBlurOuter1"></feComposite>
            <feColorMatrix values="0 0 0 0 0   0 0 0 0 0   0 0 0 0 0  0 0 0 0.25 0" type="matrix" in="shadowBlurOuter1"></feColorMatrix>
        </filter>
    </defs>
    <g id="Logo" stroke="none" stroke-width="1" fill="none" fill-rule="evenodd">
        <g id="编组-2" transform="translate(2.000000, 5.000000)">
            <g id="矩形备份-6" transform="translate(23.980853, 22.832133) rotate(-9.000000) translate(-23.980853, -22.832133) translate(2.831872, 3.065064)">
                <use fill="black" fill-opacity="1" filter="url(#filter-3)" xlink:href="#path-2"></use>
                <rect stroke="url(#linearGradient-1)" stroke-width="0.75" stroke-linejoin="square" fill="#8EA3BA" fill-rule="evenodd" x="0.375" y="0.375" width="41.5479617" height="38.7841374" rx="9.24635469"></rect>
            </g>
            <g id="编组" filter="url(#filter-4)" transform="translate(27.312115, 20.290079) rotate(1.000000) translate(-27.312115, -20.290079) translate(6.163135, 0.523010)">
                <g id="矩形备份-6">
                    <use fill="black" fill-opacity="1" filter="url(#filter-7)" xlink:href="#path-6"></use>
                    <rect stroke="url(#linearGradient-5)" stroke-width="0.75" stroke-linejoin="square" fill="#FFFEF7" fill-rule="evenodd" x="0.375" y="0.375" width="41.5479617" height="38.7841374" rx="9.24635469"></rect>
                </g>
                <g id="编组-3" transform="translate(21.164022, 19.368230) rotate(92.000000) translate(-21.164022, -19.368230) translate(12.547976, 8.004882)">
                    <path d="M15.0741176,4.97642712 C15.0499099,4.92345892 15.0195095,4.87179627 15.0054352,4.81621697 C15.0016821,4.80148286 15.0484086,4.77425272 15.0720534,4.75299084 C15.0960735,4.80558603 15.1200935,4.85818121 15.1439259,4.9109629 C15.1206565,4.93278431 15.0973871,4.95460571 15.0741176,4.97642712 Z M15.6575426,0.0751900901 C15.2341889,-0.102365283 14.8234081,0.0388210798 14.6303093,0.453427797 C14.553933,0.617554612 14.5057052,0.805554419 14.4929445,0.986093916 C14.4274523,1.91005328 14.3643996,2.83457218 14.3293078,3.76002361 C14.3169224,4.08939628 14.3672145,4.42511023 14.4227609,4.75224481 C14.4972606,5.19184357 14.5417353,5.62360899 14.5053299,6.07477123 C14.4606676,6.62758019 14.4888161,7.18691691 14.5006385,7.74326952 C14.5094583,8.15992782 14.5199671,8.16011433 14.9831041,8.23434441 C15.0196971,8.24012615 15.059668,8.22893568 15.0947599,8.23807456 C15.2495767,8.27836024 15.3614202,8.36154269 15.3674252,8.53704648 C15.3732426,8.70508996 15.2886093,8.8072962 15.1343555,8.8699628 C14.4966977,9.12902206 14.4813098,9.13200619 14.5332907,9.65683898 C14.6062892,10.3952231 14.5903384,11.1295041 14.5351673,11.8682613 C14.4993249,12.3483322 14.4535366,12.848173 14.5486786,13.3114582 C14.6334995,13.7238269 14.5959681,14.1216479 14.585647,14.5177903 C14.528224,16.7029151 14.4661096,18.8856152 14.5601257,21.0731646 C14.5811432,21.5616283 14.7023695,21.9253184 14.9744719,22.2843459 C15.1563113,22.2940443 15.3094392,22.3598815 15.4186555,22.5107663 C15.4875255,22.527552 15.5575215,22.5353853 15.6284558,22.5343711 C15.8140484,22.3923338 15.9399661,22.1877348 16.246222,22.2110483 C16.4732867,22.22858 16.7117985,22.1004492 16.9450559,22.0370366 C16.9450559,22.0370366 16.9452435,22.0370366 16.9452435,22.0368501 C17.2678256,20.9435417 17.1976419,19.8418404 17.0128,18.7380876 C16.9966615,18.2236992 16.9835255,17.7091244 16.9630709,17.194736 C16.9531251,16.9502243 16.8375285,16.7842325 16.5841919,16.7197008 C16.4586495,16.6878079 16.2469726,16.7060857 16.3006424,16.4878716 C16.3377985,16.3368004 16.4991833,16.2845782 16.6506224,16.2689116 C16.7607769,16.2575346 16.872245,16.2603322 16.9831502,16.2567886 C17.0107358,14.5890363 17.1030629,12.9196055 16.8425953,11.2593135 C16.8144467,11.078401 16.7797302,10.8846195 16.8142591,10.7098617 C16.9606314,9.96681485 16.8307729,9.22843069 16.8018737,8.4893005 C16.7369445,6.82844903 16.6558768,5.16797057 16.575935,3.50767863 C16.5597965,3.17420278 16.518512,2.84184598 16.4911141,2.50892965 C16.46822,2.22898153 16.3518727,2.0596325 16.0698246,1.92553343 C15.7159039,1.75730344 15.7271633,1.63999007 15.9591071,1.33747451 C16.4066685,0.753891774 16.3100253,0.348796952 15.6575426,0.0751900901 L15.6575426,0.0751900901 Z" id="Fill-605" fill="#343A40"></path>
                    <path d="M0.927748784,6.29526445 C0.980609419,6.2165763 1.06758578,6.16082332 1.14781398,6.09033961 C1.18511634,6.17313 1.24191341,6.23764682 1.23029157,6.28575475 C1.20461105,6.39092091 1.12063387,6.47296543 1.00441545,6.4556242 C0.968987577,6.45021672 0.909378776,6.32230185 0.927748784,6.29526445 Z M1.40930542,10.1369992 C1.41567869,10.129727 1.45560534,10.1515434 1.48034861,10.1601208 C1.47022636,10.188277 1.46047901,10.2162467 1.45035676,10.2442164 C1.42580094,10.2356391 1.38081316,10.2276211 1.38062571,10.2181114 C1.37968847,10.1905146 1.39131031,10.1578832 1.40930542,10.1369992 Z M0.0523616727,13.275948 C0.146835999,14.343832 0.182076422,15.4146995 0.285360855,16.479973 C0.373461913,17.3897349 0.339346184,18.3392137 0.964113901,19.122366 C1.07995742,19.2672492 1.09570314,19.5105858 0.96842523,19.6476374 C0.457251643,20.198268 0.537104942,20.7776142 0.825214148,21.3830655 C1.21023452,21.3765392 1.43554829,21.563004 1.55007966,21.9284751 C1.62580908,22.1697606 1.83725162,22.0854785 2.01270394,22.0578817 C2.01270394,22.0576952 2.01270394,22.0576952 2.01270394,22.0576952 C2.16266319,22.1337729 2.31262244,22.209664 2.46239424,22.2859282 C2.46239424,22.2859282 2.46239424,22.2859282 2.46239424,22.2859282 L2.46239424,22.2859282 C3.03186448,21.7328735 3.21575201,21.0461236 3.16401607,20.2784479 C3.12465177,19.6936942 3.08622471,19.1085676 3.04104949,18.5241868 C3.02305438,18.2914787 2.91695821,18.1057598 2.69820516,17.9977967 C2.56605357,17.9698269 2.4294032,17.953791 2.30381233,17.9081071 C2.25488813,17.8902065 2.20446433,17.8066702 2.2009028,17.7501714 C2.19284249,17.6241212 2.29425243,17.5898116 2.3999737,17.5857094 C2.50250834,17.5816072 2.60541787,17.5881334 2.70813996,17.5901846 C2.70813996,17.5901846 2.70813996,17.5901846 2.70813996,17.590371 C2.70813996,17.5901846 2.70813996,17.5901846 2.70813996,17.5901846 C2.94432577,17.0600651 2.91452137,16.5053322 2.80148959,15.9634655 C2.709827,15.5241543 2.68752056,15.0876402 2.6704627,14.643481 C2.64178299,13.906572 2.59417093,13.169663 2.53250019,12.4346187 C2.48901201,11.9194164 2.44702342,11.4122321 2.54543417,10.8953516 C2.65115544,10.3393135 2.55855561,9.79464976 2.30512448,9.28541433 C2.24082945,9.15638068 2.10999001,9.03088985 2.23389383,8.89514346 C2.55161999,8.54645424 2.43615137,8.12299263 2.44196229,7.73141651 C2.45658332,6.77093621 2.43277729,5.80971006 2.42434208,4.84867037 C2.1004301,4.62025096 1.90154665,4.36870992 2.0912451,3.93238223 C2.27344559,3.51358225 2.27719457,3.1035461 1.89892236,2.73714273 C1.74615138,2.58908966 1.98533638,2.54023588 2.07924836,2.45464852 C2.1512288,2.38901291 2.16978626,2.2650138 2.21214974,2.16674684 C2.09686857,1.89655931 2.01757762,1.61499743 1.64567868,1.55588808 C0.910690919,1.43934757 0.519109833,1.72090945 0.438881635,2.46714167 C0.375711302,3.05581111 0.312915866,3.64429408 0.25443176,4.23352292 C0.119093538,5.59602137 0.188637139,6.96374084 0.145523856,8.32866333 C0.136338852,8.61898906 0.31816444,8.79669003 0.414888155,9.02716055 C0.544602905,9.33575983 0.0141220645,9.32792831 0.0486126915,9.63317122 C0.0566730011,9.70496018 0.0263062534,9.7801055 0.0263062534,9.85357264 C0.0264937024,10.9949238 -0.0477361254,12.1431742 0.0523616727,13.275948 L0.0523616727,13.275948 Z" id="Fill-606" fill="#343A40"></path>
                    <path d="M8.37454573,13.9720777 C8.3895838,14.0129568 8.33444421,14.0802214 8.30993772,14.1357797 C8.25424116,14.1108807 8.19835895,14.0857958 8.14266239,14.0607109 C8.16754019,14.0053384 8.19241798,13.9497801 8.21748143,13.8942217 C8.27299234,13.918935 8.35987897,13.9321277 8.37454573,13.9720777 Z M7.93138677,10.4897406 C7.9163487,10.5915666 7.92117573,10.7439339 7.86492221,10.8689866 C7.830576,10.9455419 7.7058157,11.0157796 7.61558727,11.024327 C7.48340077,11.0367765 7.42621897,10.911538 7.45740904,10.8013504 C7.51533347,10.5958403 7.59646479,10.3953472 7.6859506,10.2011717 C7.70173129,10.1667962 7.80514123,10.1656813 7.868264,10.1645642 C7.88887173,10.1641948 7.92488884,10.2104624 7.92860194,10.2388919 C7.93732774,10.3083863 7.93138677,10.3799246 7.93138677,10.4897406 Z M7.393358,2.81525752 C7.30907054,2.91206653 7.16370252,3.78279017 7.28252185,3.95801262 C7.48470036,4.25642964 7.35882613,4.46156812 7.27379605,4.75441072 C7.15813286,5.15391047 7.1256432,5.63981365 7.25096046,6.02556318 C7.33729013,6.29183441 7.31575413,6.47950638 7.26377067,6.71047298 C7.22348349,6.88829682 7.13084155,7.09083391 7.17948321,7.24487358 C7.33134916,7.72668886 7.1165461,8.09868816 6.89932951,8.48183629 C6.88559103,8.70369801 6.85737144,8.92574554 6.86071323,9.14723564 C6.89413117,11.4006 6.93571793,13.6537786 6.96876456,15.907143 C6.99085753,17.4235697 7.25894364,18.9277327 7.16815824,20.4514062 C7.139753,20.9313634 7.30517178,21.4042596 7.47931636,21.8539291 C7.78843227,22.6523711 8.24681496,22.8781349 9.04828846,22.6323032 C9.41662837,22.5193284 9.68768497,22.3394606 9.71256276,21.8687942 C9.7318709,21.5012544 9.79313712,21.1348295 9.75749132,20.7648742 C9.69752469,20.1399822 9.61063806,19.5171342 9.56979391,18.8911274 C9.48105073,17.5307843 9.39212189,16.1698838 9.34459416,14.8076825 C9.29576684,13.4105483 8.95230472,12.0321813 9.08950391,10.6242698 C9.09655881,10.5514308 9.08263467,10.4765478 9.07706501,10.4027797 C8.9660432,8.92853275 8.8748865,7.45261345 8.7356451,5.98115367 C8.65228591,5.09965283 8.78502938,4.19826991 8.4981921,3.33590789 C8.44026767,3.29187001 8.3841998,3.24523074 8.32423317,3.20416588 C7.68817846,2.76880406 7.50140933,2.69131969 7.393358,2.81525752 L7.393358,2.81525752 Z" id="Fill-607" fill="#343A40"></path>
                    <path d="M8.20246491,2.29399737 C7.8352786,1.94625015 7.53095399,1.99109075 7.21830946,2.40898281 C7.03397676,2.65514095 6.9542903,2.90725304 6.95003789,3.2179742 C6.93191893,4.53305037 6.86480482,5.84812654 6.87146076,7.16283059 C6.87349452,7.59076992 6.68860716,8.02819834 6.89383213,8.45260252 C7.23014225,6.98235183 6.95096233,5.48493629 7.08334168,4.00501045 C7.09554425,3.86620926 7.01752178,3.71643049 7.06596227,3.56981476 C7.18336575,3.21462511 6.92230479,2.68267792 7.47437846,2.53327127 C8.09892798,2.36432827 8.27105812,2.87878577 8.48608212,3.29984086 C8.56207083,2.91581182 8.49736025,2.57346036 8.20246491,2.29399737" id="Fill-608" fill="#935E24"></path>
                    <path d="M7.47751905,2.5532896 C6.90463694,2.70213948 7.17553766,3.23210435 7.05370908,3.58597037 C7.0034428,3.73203974 7.08440604,3.88126035 7.07174355,4.01954429 C6.93437463,5.49395514 7.22407723,6.9857905 6.87509112,8.45056225 C7.09956267,8.06833505 7.3215401,7.69722988 7.16460187,7.21657269 C7.11433559,7.06290326 7.21007174,6.860853 7.2517045,6.68345657 C7.30542419,6.45304512 7.32767949,6.26582423 7.23846644,6.00019301 C7.10896362,5.61537066 7.14253842,5.13063539 7.26206473,4.73209587 C7.34993479,4.43995714 7.48001318,4.23531173 7.27108196,3.93761198 C7.1482941,3.7628107 7.29851737,2.89417992 7.38562001,2.7976036 C7.49728022,2.67396366 7.69028739,2.75126179 8.34758615,3.18557718 C8.40955564,3.22654334 8.46749616,3.27307051 8.52735525,3.31700254 C8.30422668,2.89751653 8.12560872,2.38497617 7.47751905,2.5532896" id="Fill-609" fill="#935E24"></path>
                    <path d="M2.43575675,4.8732041 C2.43505615,4.13598759 2.4355816,3.39858325 2.43277918,2.66136674 C2.43207857,2.47091132 2.38093428,2.29886282 2.23748506,2.17170472 C2.54627746,3.05166888 2.0590055,3.99906254 2.43575675,4.8732041" id="Fill-610" fill="#935E24"></path>
                    <path d="M1.89266004,2.75660931 C2.2838543,3.12568714 2.27997725,3.53871621 2.09155266,3.9605731 C1.89537398,4.40008562 2.10105143,4.65346271 2.43602848,4.88354939 C2.01905184,4.00940782 2.55834938,3.06201417 2.2165875,2.18205 C2.17277684,2.28103423 2.15358545,2.40593843 2.07914611,2.47205313 C1.98202603,2.5582652 1.73467029,2.60747558 1.89266004,2.75660931" id="Fill-611" fill="#935E24"></path>
                    <path d="M17.0586299,18.7149619 C17.2750046,17.8770902 17.3130037,17.0418533 17.0338206,16.2111332 C17.0991413,17.0448645 17.2351213,17.8776548 17.0586299,18.7149619" id="Fill-612" fill="#935E24"></path>
                    <path d="M16.3469036,16.4321051 C16.2952901,16.6523005 16.4988569,16.6338567 16.6195894,16.6660391 C16.8632199,16.7311568 16.9743876,16.8986558 16.9839524,17.1453876 C17.0036233,17.6644465 17.016256,18.1836936 17.0317762,18.7027525 C17.2346212,17.8654454 17.0783367,17.0326551 17.0032624,16.1989238 C16.8966063,16.2024996 16.7894089,16.1996766 16.6834747,16.2111569 C16.5378378,16.2269658 16.3826361,16.2796621 16.3469036,16.4321051" id="Fill-613" fill="#935E24"></path>
                    <path d="M1.91786595,22.2548339 C1.20584207,22.3443547 1.33088408,21.4937197 0.854443876,21.3184237 C0.836742145,21.8607925 1.11771005,22.2005221 1.59885816,22.4042849 C1.74536823,22.4147727 1.8918783,22.4252605 2.03857669,22.4359356 C2.03838838,22.4361229 2.03838838,22.4361229 2.03820006,22.4363102 C2.03838838,22.4361229 2.03857669,22.4361229 2.03857669,22.4361229 L2.03970659,22.4385576 C2.04083649,22.3715106 2.0421547,22.3042763 2.0432846,22.2372294 C2.00110175,22.2364802 1.95929554,22.2400386 1.91786595,22.2548339" id="Fill-614" fill="#935E24"></path>
                    <path d="M1.94708719,22.3315633 C1.98840031,22.3170926 2.03008901,22.3136123 2.07215328,22.314345 C2.07346779,22.2357637 2.0747823,22.1571824 2.0762846,22.0786011 C1.90051603,22.1057108 1.68869238,22.188505 1.61282646,21.951479 C1.49808865,21.5924596 1.27236877,21.4092864 0.886654422,21.4156975 C1.36175534,21.5871475 1.23706482,22.41912 1.94708719,22.3315633" id="Fill-615" fill="#935E24"></path>
                    <path d="M16.2661039,22.6051378 C16.5565746,22.4725667 16.9205107,22.4487469 16.9920924,22.025066 L16.991904,22.025066 C16.6501959,22.4680761 16.0961917,22.3321858 15.670281,22.5455882 C15.8531909,22.7359517 16.0496637,22.7037363 16.2661039,22.6051378" id="Fill-616" fill="#935E24"></path>
                    <path d="M16.2540335,22.2212394 C15.9465654,22.1996137 15.8201493,22.3894003 15.6338221,22.5210572 C16.0597935,22.3319626 16.6138766,22.4523742 16.9556334,22.0598256 C16.7214528,22.1186474 16.481997,22.2375019 16.2540335,22.2212394" id="Fill-617" fill="#935E24"></path>
                    <path d="M2.75511371,18.0194453 C2.75781371,17.8657718 2.76051371,17.7118872 2.76306371,17.5582137 C2.58891371,17.7059767 2.59491371,17.8600724 2.75511371,18.0194453" id="Fill-618" fill="#935E24"></path>
                    <path d="M2.25883973,17.7206228 C2.2620852,17.7836568 2.30803424,17.8768556 2.35261677,17.8968268 C2.46706233,17.9477949 2.59158594,17.9656857 2.71201001,17.9968907 C2.52958036,17.8398257 2.52274779,17.6879616 2.72106316,17.5423385 C2.62745694,17.5398421 2.5336799,17.5325609 2.44024449,17.5371376 C2.34390524,17.5417144 2.25149472,17.5799925 2.25883973,17.7206228 Z" id="Fill-619" fill="#935E24"></path>
                    <path d="M2.12178937,22.3137214 C2.11723887,22.3738465 2.09372797,22.4339717 2.03855318,22.4932378 C2.23251815,22.5052629 2.40012816,22.4660956 2.50118714,22.2975735 C2.37813409,22.3626804 2.24939292,22.3288386 2.12178937,22.3137214" id="Fill-620" fill="#935E24"></path>
                    <path d="M2.06117644,22.0655044 C2.06117644,22.0655044 2.06117644,22.0655044 2.06117644,22.0656864 C2.06117644,22.0655044 2.06117644,22.0655044 2.06136928,22.0655044 C2.11710134,22.1459476 2.14371388,22.2260267 2.13792855,22.3053779 C2.2677129,22.3213937 2.39865431,22.3572474 2.52381039,22.2882701 C2.52381039,22.2880881 2.52381039,22.2880881 2.52381039,22.2880881 C2.36972764,22.2138329 2.21545204,22.1397596 2.06117644,22.0655044" id="Fill-621" fill="#935E24"></path>
                    <path d="M2.04897516,22.2750188 C2.04807516,22.3408478 2.04702516,22.4068606 2.04612516,22.4726895 C2.08977516,22.409251 2.10837516,22.3448931 2.11197516,22.2805352 C2.09097516,22.2772254 2.06997516,22.2753866 2.04897516,22.2750188" id="Fill-622" fill="#935E24"></path>
                    <path d="M2.13287117,22.3065106 C2.13737117,22.2193236 2.11667117,22.1313366 2.07332117,22.0429497 C2.07317117,22.0429497 2.07317117,22.0429497 2.07317117,22.0431497 C2.07197117,22.128937 2.07092117,22.2147243 2.06987117,22.3005115 C2.09087117,22.3009115 2.11187117,22.3029112 2.13287117,22.3065106" id="Fill-623" fill="#935E24"></path>
                    <path d="M15.4717744,22.4707342 C15.3505944,22.3549062 15.1283659,22.3981843 15.0091404,22.2796809 C15.0935755,22.4527935 15.2608821,22.4959143 15.4717744,22.4707342" id="Fill-624" fill="#935E24"></path>
                    <path d="M15.0091404,22.2796809 C15.1283659,22.4022888 15.3505944,22.3575117 15.4717744,22.4773516 C15.3580215,22.3456254 15.198533,22.2881478 15.0091404,22.2796809" id="Fill-625" fill="#935E24"></path>
                    <path d="M1.61647107,22.4929483 C1.75409128,22.6742983 1.9107483,22.6580983 2.07910502,22.5185983 C1.916499,22.5976483 1.75904879,22.6237483 1.61647107,22.4929483" id="Fill-626" fill="#935E24"></path>
                    <path d="M1.61647107,22.5137739 C1.75892666,22.6445739 1.91624202,22.6184739 2.07870876,22.5394239 C2.07890689,22.5392739 2.07890689,22.5392739 2.07910502,22.5391239 C1.92476162,22.5305739 1.77061634,22.5221739 1.61647107,22.5137739" id="Fill-627" fill="#935E24"></path>
                    <path d="M15.0643016,4.75855395 C15.0755516,4.80772412 15.0998516,4.85342928 15.1192016,4.90028945 C15.1378016,4.88098438 15.1564016,4.86167931 15.1750016,4.84237424 C15.1559516,4.79567908 15.1367516,4.74914892 15.1175516,4.70261876 C15.0986516,4.72142882 15.0613016,4.74551891 15.0643016,4.75855395" id="Fill-628" fill="#935E24"></path>
                    <path d="M1.0462865,6.48611702 C1.17117262,6.50476656 1.26141292,6.41653219 1.28900872,6.30343178 C1.30149734,6.25169436 1.24046428,6.18231007 1.20037986,6.09327358 C1.11416815,6.16907491 1.02070498,6.22903417 0.96390194,6.31365895 C0.944161875,6.34273618 1.00821637,6.48030157 1.0462865,6.48611702" id="Fill-629" fill="#935E24"></path>
                    <path d="M1.51207239,10.1843152 C1.49227239,10.1774152 1.46032239,10.1598652 1.45522239,10.1657152 C1.44082239,10.1825152 1.43152239,10.2087652 1.43227239,10.2309652 C1.43242239,10.2386152 1.46842239,10.2450652 1.48807239,10.2519652 C1.49617239,10.2294652 1.50397239,10.2069652 1.51207239,10.1843152" id="Fill-630" fill="#935E24"></path>
                    <path d="M7.9056889,10.1358795 C7.84538805,10.1369913 7.74660105,10.138101 7.73152584,10.1723148 C7.6460405,10.3655768 7.56853616,10.5651267 7.51320125,10.76967 C7.48340554,10.8793392 7.53803102,11.0039885 7.66430811,10.9915976 C7.75050287,10.9830903 7.86968574,10.9131831 7.90249651,10.836988 C7.95623521,10.7125236 7.95162397,10.5608731 7.96598976,10.4595261 C7.96598976,10.3502268 7.97166514,10.279025 7.96332943,10.2098576 C7.95978232,10.1815618 7.92537536,10.1355118 7.9056889,10.1358795" id="Fill-631" fill="#935E24"></path>
                    <path d="M8.21328708,14.0024771 C8.2603908,14.0230044 8.30765153,14.0435317 8.35475524,14.063907 C8.37548088,14.0184428 8.42211356,13.9633991 8.40939556,13.9299471 C8.39699158,13.8972554 8.32350978,13.8864596 8.27656307,13.8662363 C8.2553664,13.9117006 8.23432674,13.9571649 8.21328708,14.0024771" id="Fill-632" fill="#935E24"></path>
                </g>
            </g>
        </g>
    </g>
</svg>